<mxfile host="app.diagrams.net" modified="2023-12-31T16:27:26.275Z" agent="Mozilla/5.0 (Windows NT 10.0; Win64; x64) AppleWebKit/537.36 (KHTML, like Gecko) Chrome/120.0.0.0 Safari/537.36" etag="Mlnoy3uJfLh9lYG51rI3" version="22.1.16" type="github">
  <diagram id="C5RBs43oDa-KdzZeNtuy" name="Page-1">
    <mxGraphModel dx="2300" dy="2087" grid="1" gridSize="10" guides="1" tooltips="1" connect="1" arrows="1" fold="1" page="1" pageScale="1" pageWidth="827" pageHeight="1169" math="0" shadow="0">
      <root>
        <mxCell id="WIyWlLk6GJQsqaUBKTNV-0" />
        <mxCell id="WIyWlLk6GJQsqaUBKTNV-1" parent="WIyWlLk6GJQsqaUBKTNV-0" />
        <mxCell id="058kQ_OK0yw4j2NdhVgZ-0" value="Customer" style="swimlane;fontStyle=1;align=center;verticalAlign=top;childLayout=stackLayout;horizontal=1;startSize=26;horizontalStack=0;resizeParent=1;resizeParentMax=0;resizeLast=0;collapsible=1;marginBottom=0;whiteSpace=wrap;html=1;" parent="WIyWlLk6GJQsqaUBKTNV-1" vertex="1">
          <mxGeometry x="800" y="-100" width="160" height="178" as="geometry" />
        </mxCell>
        <mxCell id="058kQ_OK0yw4j2NdhVgZ-1" value="- name : String&lt;br&gt;- username : String&lt;br&gt;- password : String&lt;br&gt;- email : String&lt;br&gt;- phoneNumber : String&lt;br&gt;- location : String&lt;br&gt;- balance : double&lt;br&gt;- accountStatus : boolean" style="text;strokeColor=none;fillColor=none;align=left;verticalAlign=top;spacingLeft=4;spacingRight=4;overflow=hidden;rotatable=0;points=[[0,0.5],[1,0.5]];portConstraint=eastwest;whiteSpace=wrap;html=1;" parent="058kQ_OK0yw4j2NdhVgZ-0" vertex="1">
          <mxGeometry y="26" width="160" height="144" as="geometry" />
        </mxCell>
        <mxCell id="058kQ_OK0yw4j2NdhVgZ-2" value="" style="line;strokeWidth=1;fillColor=none;align=left;verticalAlign=middle;spacingTop=-1;spacingLeft=3;spacingRight=3;rotatable=0;labelPosition=right;points=[];portConstraint=eastwest;strokeColor=inherit;" parent="058kQ_OK0yw4j2NdhVgZ-0" vertex="1">
          <mxGeometry y="170" width="160" height="8" as="geometry" />
        </mxCell>
        <mxCell id="058kQ_OK0yw4j2NdhVgZ-3" style="edgeStyle=orthogonalEdgeStyle;rounded=0;orthogonalLoop=1;jettySize=auto;html=1;entryX=0.5;entryY=0;entryDx=0;entryDy=0;" parent="WIyWlLk6GJQsqaUBKTNV-1" source="058kQ_OK0yw4j2NdhVgZ-4" target="058kQ_OK0yw4j2NdhVgZ-19" edge="1">
          <mxGeometry relative="1" as="geometry" />
        </mxCell>
        <mxCell id="058kQ_OK0yw4j2NdhVgZ-4" value="CustomerBSL" style="swimlane;fontStyle=1;align=center;verticalAlign=top;childLayout=stackLayout;horizontal=1;startSize=26;horizontalStack=0;resizeParent=1;resizeParentMax=0;resizeLast=0;collapsible=1;marginBottom=0;whiteSpace=wrap;html=1;" parent="WIyWlLk6GJQsqaUBKTNV-1" vertex="1">
          <mxGeometry x="395" y="210" width="210" height="130" as="geometry" />
        </mxCell>
        <mxCell id="058kQ_OK0yw4j2NdhVgZ-5" value="" style="line;strokeWidth=1;fillColor=none;align=left;verticalAlign=middle;spacingTop=-1;spacingLeft=3;spacingRight=3;rotatable=0;labelPosition=right;points=[];portConstraint=eastwest;strokeColor=inherit;" parent="058kQ_OK0yw4j2NdhVgZ-4" vertex="1">
          <mxGeometry y="26" width="210" height="8" as="geometry" />
        </mxCell>
        <mxCell id="058kQ_OK0yw4j2NdhVgZ-6" value="+registerCustomer(Customer):String&lt;br&gt;+ addCustomer(Customer):void&lt;br&gt;+ removeCustomer(Customer):void&lt;br&gt;" style="text;strokeColor=none;fillColor=none;align=left;verticalAlign=top;spacingLeft=4;spacingRight=4;overflow=hidden;rotatable=0;points=[[0,0.5],[1,0.5]];portConstraint=eastwest;whiteSpace=wrap;html=1;" parent="058kQ_OK0yw4j2NdhVgZ-4" vertex="1">
          <mxGeometry y="34" width="210" height="96" as="geometry" />
        </mxCell>
        <mxCell id="058kQ_OK0yw4j2NdhVgZ-7" style="edgeStyle=orthogonalEdgeStyle;rounded=0;orthogonalLoop=1;jettySize=auto;html=1;entryX=0.5;entryY=0;entryDx=0;entryDy=0;" parent="WIyWlLk6GJQsqaUBKTNV-1" source="058kQ_OK0yw4j2NdhVgZ-8" target="058kQ_OK0yw4j2NdhVgZ-4" edge="1">
          <mxGeometry relative="1" as="geometry" />
        </mxCell>
        <mxCell id="058kQ_OK0yw4j2NdhVgZ-8" value="CustomerController" style="swimlane;fontStyle=1;align=center;verticalAlign=top;childLayout=stackLayout;horizontal=1;startSize=26;horizontalStack=0;resizeParent=1;resizeParentMax=0;resizeLast=0;collapsible=1;marginBottom=0;whiteSpace=wrap;html=1;" parent="WIyWlLk6GJQsqaUBKTNV-1" vertex="1">
          <mxGeometry x="320" y="-20" width="360" height="130" as="geometry" />
        </mxCell>
        <mxCell id="058kQ_OK0yw4j2NdhVgZ-9" value="" style="line;strokeWidth=1;fillColor=none;align=left;verticalAlign=middle;spacingTop=-1;spacingLeft=3;spacingRight=3;rotatable=0;labelPosition=right;points=[];portConstraint=eastwest;strokeColor=inherit;" parent="058kQ_OK0yw4j2NdhVgZ-8" vertex="1">
          <mxGeometry y="26" width="360" height="8" as="geometry" />
        </mxCell>
        <mxCell id="058kQ_OK0yw4j2NdhVgZ-10" value="+ registerCustomerAPI(Customer):ResponseEntity&amp;lt;String&amp;gt;&lt;br&gt;+ sendOTPAPI() : ResponseEntity&amp;lt;String&amp;gt;&lt;br&gt;+ verifyOTPAPI() :&amp;nbsp;ResponseEntity&amp;lt;String&amp;gt;&lt;br&gt;+ loginCustomerAPI(String , String ) :&amp;nbsp;ResponseEntity&amp;lt;String&amp;gt;" style="text;strokeColor=none;fillColor=none;align=left;verticalAlign=top;spacingLeft=4;spacingRight=4;overflow=hidden;rotatable=0;points=[[0,0.5],[1,0.5]];portConstraint=eastwest;whiteSpace=wrap;html=1;" parent="058kQ_OK0yw4j2NdhVgZ-8" vertex="1">
          <mxGeometry y="34" width="360" height="96" as="geometry" />
        </mxCell>
        <mxCell id="058kQ_OK0yw4j2NdhVgZ-11" style="edgeStyle=orthogonalEdgeStyle;rounded=0;orthogonalLoop=1;jettySize=auto;html=1;entryX=0.5;entryY=1;entryDx=0;entryDy=0;" parent="WIyWlLk6GJQsqaUBKTNV-1" source="058kQ_OK0yw4j2NdhVgZ-12" target="058kQ_OK0yw4j2NdhVgZ-0" edge="1">
          <mxGeometry relative="1" as="geometry" />
        </mxCell>
        <mxCell id="058kQ_OK0yw4j2NdhVgZ-12" value="CustomerDatabase" style="swimlane;fontStyle=1;align=center;verticalAlign=top;childLayout=stackLayout;horizontal=1;startSize=26;horizontalStack=0;resizeParent=1;resizeParentMax=0;resizeLast=0;collapsible=1;marginBottom=0;whiteSpace=wrap;html=1;" parent="WIyWlLk6GJQsqaUBKTNV-1" vertex="1">
          <mxGeometry x="760" y="185" width="240" height="214" as="geometry" />
        </mxCell>
        <mxCell id="058kQ_OK0yw4j2NdhVgZ-13" value="" style="line;strokeWidth=1;fillColor=none;align=left;verticalAlign=middle;spacingTop=-1;spacingLeft=3;spacingRight=3;rotatable=0;labelPosition=right;points=[];portConstraint=eastwest;strokeColor=inherit;" parent="058kQ_OK0yw4j2NdhVgZ-12" vertex="1">
          <mxGeometry y="26" width="240" height="8" as="geometry" />
        </mxCell>
        <mxCell id="058kQ_OK0yw4j2NdhVgZ-14" value="+addCustomerToDB ( Customer):void&lt;br&gt;&lt;br&gt;+&amp;nbsp;removeCustomerFromDB(Customer):void&lt;br&gt;&lt;br&gt;+ isUniqueUsername(String):boolean&lt;br&gt;&lt;br&gt;+ searchAccount(String , String ):Customer" style="text;strokeColor=none;fillColor=none;align=left;verticalAlign=top;spacingLeft=4;spacingRight=4;overflow=hidden;rotatable=0;points=[[0,0.5],[1,0.5]];portConstraint=eastwest;whiteSpace=wrap;html=1;" parent="058kQ_OK0yw4j2NdhVgZ-12" vertex="1">
          <mxGeometry y="34" width="240" height="180" as="geometry" />
        </mxCell>
        <mxCell id="058kQ_OK0yw4j2NdhVgZ-15" value="LoginValidation" style="swimlane;fontStyle=1;align=center;verticalAlign=top;childLayout=stackLayout;horizontal=1;startSize=26;horizontalStack=0;resizeParent=1;resizeParentMax=0;resizeLast=0;collapsible=1;marginBottom=0;whiteSpace=wrap;html=1;" parent="WIyWlLk6GJQsqaUBKTNV-1" vertex="1">
          <mxGeometry x="120" y="410" width="160" height="144" as="geometry" />
        </mxCell>
        <mxCell id="058kQ_OK0yw4j2NdhVgZ-16" value="" style="line;strokeWidth=1;fillColor=none;align=left;verticalAlign=middle;spacingTop=-1;spacingLeft=3;spacingRight=3;rotatable=0;labelPosition=right;points=[];portConstraint=eastwest;strokeColor=inherit;" parent="058kQ_OK0yw4j2NdhVgZ-15" vertex="1">
          <mxGeometry y="26" width="160" height="8" as="geometry" />
        </mxCell>
        <mxCell id="058kQ_OK0yw4j2NdhVgZ-17" value="+ isValidAccount(String , String):boolean" style="text;strokeColor=none;fillColor=none;align=left;verticalAlign=top;spacingLeft=4;spacingRight=4;overflow=hidden;rotatable=0;points=[[0,0.5],[1,0.5]];portConstraint=eastwest;whiteSpace=wrap;html=1;" parent="058kQ_OK0yw4j2NdhVgZ-15" vertex="1">
          <mxGeometry y="34" width="160" height="110" as="geometry" />
        </mxCell>
        <mxCell id="058kQ_OK0yw4j2NdhVgZ-18" style="edgeStyle=orthogonalEdgeStyle;rounded=0;orthogonalLoop=1;jettySize=auto;html=1;exitX=1;exitY=0.5;exitDx=0;exitDy=0;" parent="058kQ_OK0yw4j2NdhVgZ-15" source="058kQ_OK0yw4j2NdhVgZ-17" target="058kQ_OK0yw4j2NdhVgZ-17" edge="1">
          <mxGeometry relative="1" as="geometry" />
        </mxCell>
        <mxCell id="058kQ_OK0yw4j2NdhVgZ-19" value="RegisterationValidation" style="swimlane;fontStyle=1;align=center;verticalAlign=top;childLayout=stackLayout;horizontal=1;startSize=26;horizontalStack=0;resizeParent=1;resizeParentMax=0;resizeLast=0;collapsible=1;marginBottom=0;whiteSpace=wrap;html=1;" parent="WIyWlLk6GJQsqaUBKTNV-1" vertex="1">
          <mxGeometry x="365" y="480" width="270" height="220" as="geometry" />
        </mxCell>
        <mxCell id="058kQ_OK0yw4j2NdhVgZ-20" value="+ otp : String" style="text;strokeColor=none;fillColor=none;align=left;verticalAlign=top;spacingLeft=4;spacingRight=4;overflow=hidden;rotatable=0;points=[[0,0.5],[1,0.5]];portConstraint=eastwest;whiteSpace=wrap;html=1;" parent="058kQ_OK0yw4j2NdhVgZ-19" vertex="1">
          <mxGeometry y="26" width="270" height="26" as="geometry" />
        </mxCell>
        <mxCell id="058kQ_OK0yw4j2NdhVgZ-21" value="" style="line;strokeWidth=1;fillColor=none;align=left;verticalAlign=middle;spacingTop=-1;spacingLeft=3;spacingRight=3;rotatable=0;labelPosition=right;points=[];portConstraint=eastwest;strokeColor=inherit;" parent="058kQ_OK0yw4j2NdhVgZ-19" vertex="1">
          <mxGeometry y="52" width="270" height="8" as="geometry" />
        </mxCell>
        <mxCell id="058kQ_OK0yw4j2NdhVgZ-22" value="+ register(Customer) : String&lt;br&gt;+ verifyUsername(String) : boolean&lt;br&gt;+ verifyMail(String) : boolean&lt;br&gt;+ checkPasswordComplexity(String):boolean&lt;br&gt;+ verifyPhoneNumber(String) : boolean&lt;br&gt;+ sendOTP() :&amp;nbsp; String&lt;br&gt;+verifyOTP(String) : boolean&lt;br&gt;+verifyBalance(Double):boolean&lt;br&gt;&lt;br&gt;" style="text;strokeColor=none;fillColor=none;align=left;verticalAlign=top;spacingLeft=4;spacingRight=4;overflow=hidden;rotatable=0;points=[[0,0.5],[1,0.5]];portConstraint=eastwest;whiteSpace=wrap;html=1;" parent="058kQ_OK0yw4j2NdhVgZ-19" vertex="1">
          <mxGeometry y="60" width="270" height="160" as="geometry" />
        </mxCell>
        <mxCell id="058kQ_OK0yw4j2NdhVgZ-23" style="edgeStyle=orthogonalEdgeStyle;rounded=0;orthogonalLoop=1;jettySize=auto;html=1;entryX=0.5;entryY=0;entryDx=0;entryDy=0;" parent="WIyWlLk6GJQsqaUBKTNV-1" source="058kQ_OK0yw4j2NdhVgZ-6" target="058kQ_OK0yw4j2NdhVgZ-15" edge="1">
          <mxGeometry relative="1" as="geometry" />
        </mxCell>
        <mxCell id="058kQ_OK0yw4j2NdhVgZ-24" style="edgeStyle=orthogonalEdgeStyle;rounded=0;orthogonalLoop=1;jettySize=auto;html=1;exitX=1;exitY=0.5;exitDx=0;exitDy=0;" parent="WIyWlLk6GJQsqaUBKTNV-1" source="058kQ_OK0yw4j2NdhVgZ-6" target="058kQ_OK0yw4j2NdhVgZ-12" edge="1">
          <mxGeometry relative="1" as="geometry" />
        </mxCell>
        <mxCell id="058kQ_OK0yw4j2NdhVgZ-25" style="edgeStyle=orthogonalEdgeStyle;rounded=0;orthogonalLoop=1;jettySize=auto;html=1;entryX=0.5;entryY=1;entryDx=0;entryDy=0;" parent="WIyWlLk6GJQsqaUBKTNV-1" source="058kQ_OK0yw4j2NdhVgZ-22" target="058kQ_OK0yw4j2NdhVgZ-12" edge="1">
          <mxGeometry relative="1" as="geometry" />
        </mxCell>
        <mxCell id="058kQ_OK0yw4j2NdhVgZ-26" value="0..*" style="text;html=1;align=center;verticalAlign=middle;resizable=0;points=[];autosize=1;strokeColor=none;fillColor=none;" parent="WIyWlLk6GJQsqaUBKTNV-1" vertex="1">
          <mxGeometry x="890" y="78" width="40" height="30" as="geometry" />
        </mxCell>
        <mxCell id="058kQ_OK0yw4j2NdhVgZ-27" value="1" style="text;html=1;align=center;verticalAlign=middle;resizable=0;points=[];autosize=1;strokeColor=none;fillColor=none;" parent="WIyWlLk6GJQsqaUBKTNV-1" vertex="1">
          <mxGeometry x="725" y="248" width="30" height="30" as="geometry" />
        </mxCell>
        <mxCell id="058kQ_OK0yw4j2NdhVgZ-28" value="1" style="text;html=1;align=center;verticalAlign=middle;resizable=0;points=[];autosize=1;strokeColor=none;fillColor=none;" parent="WIyWlLk6GJQsqaUBKTNV-1" vertex="1">
          <mxGeometry x="465" y="438" width="30" height="30" as="geometry" />
        </mxCell>
        <mxCell id="058kQ_OK0yw4j2NdhVgZ-29" style="edgeStyle=orthogonalEdgeStyle;rounded=0;orthogonalLoop=1;jettySize=auto;html=1;exitX=0.75;exitY=0;exitDx=0;exitDy=0;entryX=0.003;entryY=0.793;entryDx=0;entryDy=0;entryPerimeter=0;" parent="WIyWlLk6GJQsqaUBKTNV-1" source="058kQ_OK0yw4j2NdhVgZ-15" target="058kQ_OK0yw4j2NdhVgZ-14" edge="1">
          <mxGeometry relative="1" as="geometry" />
        </mxCell>
        <mxCell id="058kQ_OK0yw4j2NdhVgZ-30" value="1" style="text;html=1;align=center;verticalAlign=middle;resizable=0;points=[];autosize=1;strokeColor=none;fillColor=none;" parent="WIyWlLk6GJQsqaUBKTNV-1" vertex="1">
          <mxGeometry x="175" y="368" width="30" height="30" as="geometry" />
        </mxCell>
        <mxCell id="058kQ_OK0yw4j2NdhVgZ-31" value="Product" style="swimlane;fontStyle=1;align=center;verticalAlign=top;childLayout=stackLayout;horizontal=1;startSize=26;horizontalStack=0;resizeParent=1;resizeParentMax=0;resizeLast=0;collapsible=1;marginBottom=0;whiteSpace=wrap;html=1;" parent="WIyWlLk6GJQsqaUBKTNV-1" vertex="1">
          <mxGeometry x="1500" y="7" width="160" height="178" as="geometry" />
        </mxCell>
        <mxCell id="058kQ_OK0yw4j2NdhVgZ-32" value="- serialNO : String&lt;br&gt;- name : String&lt;br&gt;- vendor : String&lt;br&gt;- category : String&lt;br&gt;- price : double" style="text;strokeColor=none;fillColor=none;align=left;verticalAlign=top;spacingLeft=4;spacingRight=4;overflow=hidden;rotatable=0;points=[[0,0.5],[1,0.5]];portConstraint=eastwest;whiteSpace=wrap;html=1;" parent="058kQ_OK0yw4j2NdhVgZ-31" vertex="1">
          <mxGeometry y="26" width="160" height="144" as="geometry" />
        </mxCell>
        <mxCell id="058kQ_OK0yw4j2NdhVgZ-33" value="" style="line;strokeWidth=1;fillColor=none;align=left;verticalAlign=middle;spacingTop=-1;spacingLeft=3;spacingRight=3;rotatable=0;labelPosition=right;points=[];portConstraint=eastwest;strokeColor=inherit;" parent="058kQ_OK0yw4j2NdhVgZ-31" vertex="1">
          <mxGeometry y="170" width="160" height="8" as="geometry" />
        </mxCell>
        <mxCell id="058kQ_OK0yw4j2NdhVgZ-34" style="edgeStyle=orthogonalEdgeStyle;rounded=0;orthogonalLoop=1;jettySize=auto;html=1;entryX=0.5;entryY=0;entryDx=0;entryDy=0;" parent="WIyWlLk6GJQsqaUBKTNV-1" source="058kQ_OK0yw4j2NdhVgZ-35" target="058kQ_OK0yw4j2NdhVgZ-31" edge="1">
          <mxGeometry relative="1" as="geometry">
            <mxPoint x="1530" y="10" as="targetPoint" />
          </mxGeometry>
        </mxCell>
        <mxCell id="058kQ_OK0yw4j2NdhVgZ-35" value="ProductCategory" style="swimlane;fontStyle=1;align=center;verticalAlign=top;childLayout=stackLayout;horizontal=1;startSize=26;horizontalStack=0;resizeParent=1;resizeParentMax=0;resizeLast=0;collapsible=1;marginBottom=0;whiteSpace=wrap;html=1;" parent="WIyWlLk6GJQsqaUBKTNV-1" vertex="1">
          <mxGeometry x="1220" y="-80" width="230" height="84" as="geometry" />
        </mxCell>
        <mxCell id="058kQ_OK0yw4j2NdhVgZ-36" value="" style="line;strokeWidth=1;fillColor=none;align=left;verticalAlign=middle;spacingTop=-1;spacingLeft=3;spacingRight=3;rotatable=0;labelPosition=right;points=[];portConstraint=eastwest;strokeColor=inherit;" parent="058kQ_OK0yw4j2NdhVgZ-35" vertex="1">
          <mxGeometry y="26" width="230" height="8" as="geometry" />
        </mxCell>
        <mxCell id="058kQ_OK0yw4j2NdhVgZ-37" value="+addProductToCategory(Product):void&lt;br&gt;" style="text;strokeColor=none;fillColor=none;align=left;verticalAlign=top;spacingLeft=4;spacingRight=4;overflow=hidden;rotatable=0;points=[[0,0.5],[1,0.5]];portConstraint=eastwest;whiteSpace=wrap;html=1;" parent="058kQ_OK0yw4j2NdhVgZ-35" vertex="1">
          <mxGeometry y="34" width="230" height="50" as="geometry" />
        </mxCell>
        <mxCell id="058kQ_OK0yw4j2NdhVgZ-38" value="Store" style="swimlane;fontStyle=1;align=center;verticalAlign=top;childLayout=stackLayout;horizontal=1;startSize=26;horizontalStack=0;resizeParent=1;resizeParentMax=0;resizeLast=0;collapsible=1;marginBottom=0;whiteSpace=wrap;html=1;" parent="WIyWlLk6GJQsqaUBKTNV-1" vertex="1">
          <mxGeometry x="1220" y="90" width="160" height="64" as="geometry" />
        </mxCell>
        <mxCell id="058kQ_OK0yw4j2NdhVgZ-39" value="" style="line;strokeWidth=1;fillColor=none;align=left;verticalAlign=middle;spacingTop=-1;spacingLeft=3;spacingRight=3;rotatable=0;labelPosition=right;points=[];portConstraint=eastwest;strokeColor=inherit;" parent="058kQ_OK0yw4j2NdhVgZ-38" vertex="1">
          <mxGeometry y="26" width="160" height="8" as="geometry" />
        </mxCell>
        <mxCell id="058kQ_OK0yw4j2NdhVgZ-40" value="+ initStore( ) : void" style="text;strokeColor=none;fillColor=none;align=left;verticalAlign=top;spacingLeft=4;spacingRight=4;overflow=hidden;rotatable=0;points=[[0,0.5],[1,0.5]];portConstraint=eastwest;whiteSpace=wrap;html=1;" parent="058kQ_OK0yw4j2NdhVgZ-38" vertex="1">
          <mxGeometry y="34" width="160" height="30" as="geometry" />
        </mxCell>
        <mxCell id="058kQ_OK0yw4j2NdhVgZ-41" style="edgeStyle=orthogonalEdgeStyle;rounded=0;orthogonalLoop=1;jettySize=auto;html=1;entryX=1;entryY=0.75;entryDx=0;entryDy=0;" parent="WIyWlLk6GJQsqaUBKTNV-1" source="058kQ_OK0yw4j2NdhVgZ-42" target="058kQ_OK0yw4j2NdhVgZ-46" edge="1">
          <mxGeometry relative="1" as="geometry" />
        </mxCell>
        <mxCell id="058kQ_OK0yw4j2NdhVgZ-42" value="StoreController" style="swimlane;fontStyle=1;align=center;verticalAlign=top;childLayout=stackLayout;horizontal=1;startSize=26;horizontalStack=0;resizeParent=1;resizeParentMax=0;resizeLast=0;collapsible=1;marginBottom=0;whiteSpace=wrap;html=1;" parent="WIyWlLk6GJQsqaUBKTNV-1" vertex="1">
          <mxGeometry x="1390" y="-254" width="264" height="114" as="geometry" />
        </mxCell>
        <mxCell id="058kQ_OK0yw4j2NdhVgZ-43" value="" style="line;strokeWidth=1;fillColor=none;align=left;verticalAlign=middle;spacingTop=-1;spacingLeft=3;spacingRight=3;rotatable=0;labelPosition=right;points=[];portConstraint=eastwest;strokeColor=inherit;" parent="058kQ_OK0yw4j2NdhVgZ-42" vertex="1">
          <mxGeometry y="26" width="264" height="8" as="geometry" />
        </mxCell>
        <mxCell id="058kQ_OK0yw4j2NdhVgZ-44" value="+listAllProducts ( ) : ResponseEntity&amp;lt;String&amp;gt;&lt;br&gt;+listAllProductsByCategory ( ) : ResponseEntity&amp;lt;String&amp;gt;" style="text;strokeColor=none;fillColor=none;align=left;verticalAlign=top;spacingLeft=4;spacingRight=4;overflow=hidden;rotatable=0;points=[[0,0.5],[1,0.5]];portConstraint=eastwest;whiteSpace=wrap;html=1;" parent="058kQ_OK0yw4j2NdhVgZ-42" vertex="1">
          <mxGeometry y="34" width="264" height="80" as="geometry" />
        </mxCell>
        <mxCell id="058kQ_OK0yw4j2NdhVgZ-45" style="edgeStyle=orthogonalEdgeStyle;rounded=0;orthogonalLoop=1;jettySize=auto;html=1;exitX=0.5;exitY=1;exitDx=0;exitDy=0;entryX=0;entryY=0.5;entryDx=0;entryDy=0;" parent="WIyWlLk6GJQsqaUBKTNV-1" source="058kQ_OK0yw4j2NdhVgZ-46" target="058kQ_OK0yw4j2NdhVgZ-40" edge="1">
          <mxGeometry relative="1" as="geometry" />
        </mxCell>
        <mxCell id="058kQ_OK0yw4j2NdhVgZ-46" value="StoreBSL" style="swimlane;fontStyle=1;align=center;verticalAlign=top;childLayout=stackLayout;horizontal=1;startSize=26;horizontalStack=0;resizeParent=1;resizeParentMax=0;resizeLast=0;collapsible=1;marginBottom=0;whiteSpace=wrap;html=1;" parent="WIyWlLk6GJQsqaUBKTNV-1" vertex="1">
          <mxGeometry x="1030" y="-223" width="160" height="34" as="geometry" />
        </mxCell>
        <mxCell id="058kQ_OK0yw4j2NdhVgZ-47" value="" style="line;strokeWidth=1;fillColor=none;align=left;verticalAlign=middle;spacingTop=-1;spacingLeft=3;spacingRight=3;rotatable=0;labelPosition=right;points=[];portConstraint=eastwest;strokeColor=inherit;" parent="058kQ_OK0yw4j2NdhVgZ-46" vertex="1">
          <mxGeometry y="26" width="160" height="8" as="geometry" />
        </mxCell>
        <mxCell id="058kQ_OK0yw4j2NdhVgZ-48" value="0..*" style="text;html=1;align=center;verticalAlign=middle;resizable=0;points=[];autosize=1;strokeColor=none;fillColor=none;" parent="WIyWlLk6GJQsqaUBKTNV-1" vertex="1">
          <mxGeometry x="1550" y="-20" width="40" height="30" as="geometry" />
        </mxCell>
        <mxCell id="058kQ_OK0yw4j2NdhVgZ-49" value="" style="endArrow=classic;html=1;rounded=0;entryX=0.353;entryY=1.047;entryDx=0;entryDy=0;entryPerimeter=0;exitX=0.5;exitY=0;exitDx=0;exitDy=0;" parent="WIyWlLk6GJQsqaUBKTNV-1" source="058kQ_OK0yw4j2NdhVgZ-38" target="058kQ_OK0yw4j2NdhVgZ-37" edge="1">
          <mxGeometry width="50" height="50" relative="1" as="geometry">
            <mxPoint x="1305.28" y="89.17599999999993" as="sourcePoint" />
            <mxPoint x="1303.86" y="2.650000000000091" as="targetPoint" />
          </mxGeometry>
        </mxCell>
        <mxCell id="058kQ_OK0yw4j2NdhVgZ-50" style="edgeStyle=orthogonalEdgeStyle;rounded=0;orthogonalLoop=1;jettySize=auto;html=1;exitX=1;exitY=0.5;exitDx=0;exitDy=0;entryX=-0.018;entryY=0.556;entryDx=0;entryDy=0;entryPerimeter=0;" parent="WIyWlLk6GJQsqaUBKTNV-1" source="058kQ_OK0yw4j2NdhVgZ-38" target="058kQ_OK0yw4j2NdhVgZ-32" edge="1">
          <mxGeometry relative="1" as="geometry" />
        </mxCell>
        <mxCell id="058kQ_OK0yw4j2NdhVgZ-51" value="0..*" style="text;html=1;align=center;verticalAlign=middle;resizable=0;points=[];autosize=1;strokeColor=none;fillColor=none;" parent="WIyWlLk6GJQsqaUBKTNV-1" vertex="1">
          <mxGeometry x="1450" y="81" width="40" height="30" as="geometry" />
        </mxCell>
      </root>
    </mxGraphModel>
  </diagram>
</mxfile>
